<svg width="17" height="14" viewBox="0 0 17 14" fill="none" xmlns="http://www.w3.org/2000/svg">
<path d="M0 6.99988C0 6.62018 0.282154 6.30639 0.648229 6.25672L0.75 6.24988L15.75 6.24988C16.1642 6.24988 16.5 6.58566 16.5 6.99988C16.5 7.37957 16.2178 7.69337 15.8518 7.74303L15.75 7.74988L0.75 7.74988C0.335786 7.74988 0 7.41409 0 6.99988Z" fill="#00A642"/>
<path d="M9.17101 1.50695C8.87749 1.21468 8.87646 0.739811 9.16872 0.446288C9.43442 0.179449 9.85103 0.154346 10.1451 0.371568L10.2294 0.444004L16.2794 6.468C16.547 6.73449 16.5714 7.1526 16.3524 7.44668L16.2794 7.5309L10.2294 13.5559C9.93593 13.8482 9.46105 13.8472 9.16877 13.5537C8.90305 13.2869 8.87971 12.8702 9.09817 12.577L9.17096 12.493L14.687 6.99918L9.17101 1.50695Z" fill="#00A642"/>
</svg>
