<svg width="20" height="19" viewBox="0 0 20 19" fill="none" xmlns="http://www.w3.org/2000/svg">
<path d="M4.82474 2.2562C4.82474 3.50226 3.74469 4.5124 2.41237 4.5124C1.08006 4.5124 0 3.50226 0 2.2562C0 1.01013 1.08006 0 2.41237 0C3.74469 0 4.82474 1.01013 4.82474 2.2562Z" fill="white"/>
<path d="M0.329897 6.1708H4.45361V18.6667H0.329897V6.1708Z" fill="white"/>
<path d="M11.0928 6.1708H6.96907V18.6667H11.0928C11.0928 18.6667 11.0928 14.7328 11.0928 12.2731C11.0928 10.7968 11.5969 9.31405 13.6082 9.31405C15.8814 9.31405 15.8677 11.246 15.8571 12.7428C15.8432 14.6993 15.8763 16.6958 15.8763 18.6667H20V12.0716C19.9651 7.8605 18.8678 5.92011 15.2577 5.92011C13.1139 5.92011 11.7849 6.89341 11.0928 7.77399V6.1708Z" fill="white"/>
</svg>
