<svg width="1316" height="655" viewBox="0 0 1316 655" fill="none" xmlns="http://www.w3.org/2000/svg">
<path d="M527.495 246.48L534.381 243.781L542.326 231.904V223.806L550.271 218.947L560.864 211.389L571.987 216.247L588.407 205.99L599.53 204.37L612.243 205.99L623.366 201.131L628.133 211.389L623.366 216.247L635.548 223.806H642.434L650.379 231.904L660.973 235.683L666.269 231.904V223.806H677.922L691.694 231.904H705.465H718.177L725.063 246.48L728.241 254.578L734.067 265.915L738.305 276.713V285.35L745.72 291.829L749.958 304.786L758.432 310.724L765.848 319.902L769.026 328.54L774.852 332.319L784.386 334.478L802.395 328.54V342.036L794.45 355.533L787.035 367.41L776.971 377.128L765.848 390.085L756.314 400.882L749.958 412.759L753.136 427.335L758.432 434.354V446.231V457.028L753.136 466.206L743.072 468.905L738.305 475.923L731.419 484.021L734.067 497.518L731.419 503.457L724.004 508.855L720.296 513.714V519.113L718.707 525.591L705.995 541.247L694.342 549.345L684.278 554.204L678.981 549.345L672.096 554.204H663.091L659.383 549.345V541.247L655.146 531.53L646.671 521.272V513.714L643.493 497.518L638.726 484.021L631.84 473.224V463.507L635.548 454.329L638.726 443.531V434.354V427.335L635.548 419.237L631.84 407.36L628.133 403.041L623.366 395.483V386.845V373.889V367.41L615.95 361.472H605.887L601.649 355.533L594.763 351.754L585.759 355.533L574.636 358.772H560.864L547.093 361.472L538.088 358.772L524.847 347.975L521.139 342.036L516.372 334.478L512.134 328.54L509.486 324.761V317.742L505.778 312.344L509.486 305.865V294.528V289.129V282.651V275.093L516.372 265.915L521.139 254.578L527.495 246.48Z" stroke="#66CA8E" stroke-width="3" stroke-dasharray="2 2"/>
<path d="M792.331 450.01L782.267 461.347L772.204 467.286V481.322L767.437 491.58V502.377L772.204 508.316H782.267L788.094 502.377V491.58L794.98 474.304L798.158 461.347V450.01L794.98 444.611L792.331 450.01Z" stroke="#66CA8E" stroke-width="3" stroke-dasharray="2 2"/>
<path d="M1166.81 594.694L1170.52 585.517H1178.99L1183.23 588.756L1178.99 594.694L1170.52 597.934L1166.81 594.694Z" stroke="#66CA8E" stroke-width="3" stroke-dasharray="2 2"/>
<path d="M1115.43 542.867L1102.19 548.806H1084.71L1077.3 553.125L1069.35 557.444L1065.64 553.125V548.806L1069.35 536.929V520.733V503.997L1074.65 494.279L1093.72 482.942H1102.19L1115.43 469.445L1119.14 464.586L1126.03 457.028L1137.15 453.249L1144.56 457.028L1148.27 451.63L1155.16 446.771L1167.87 442.992C1179.31 441.264 1178.29 446.231 1176.34 448.93L1170.52 457.028L1176.34 461.347L1190.12 469.445L1199.65 457.028V448.93L1205.48 440.292L1208.12 448.93L1215.01 457.028V471.605L1219.78 478.083L1227.72 494.279L1235.67 503.997V513.714L1231.43 531.53L1223.49 542.867L1215.01 548.806L1208.12 562.302L1199.65 569.321H1191.7L1188 573.1L1182.7 576.339L1176.34 573.1H1167.87L1161.51 569.321V562.302L1158.87 557.444L1153.57 548.806L1148.27 553.125L1141.92 542.867L1135.03 540.168H1129.2L1115.43 542.867Z" stroke="#66CA8E" stroke-width="3" stroke-dasharray="2 2"/>
<path d="M1254.21 612.51H1242.55C1242.55 608.623 1246.79 603.692 1248.91 601.713L1262.15 594.694L1273.8 590.915L1283.87 583.897V590.915L1277.51 594.694L1273.8 601.713H1268.51L1262.15 608.191L1254.21 612.51Z" stroke="#66CA8E" stroke-width="3" stroke-dasharray="2 2"/>
<path d="M1298.7 587.676H1291.81L1294.46 580.118V574.179L1301.88 570.94L1305.05 559.603L1308.23 567.701L1313 574.179L1305.05 580.118L1298.7 587.676Z" stroke="#66CA8E" stroke-width="3" stroke-dasharray="2 2"/>
<path d="M345.817 650.301L331.516 642.203H321.452L307.681 636.264L300.795 624.927L291.79 611.97L295.498 607.111V600.093L291.79 593.075L284.375 583.357V573.64L281.727 547.726L278.019 524.512V502.917V482.942L267.425 470.525L254.184 461.887L245.709 450.01L237.234 435.973L229.819 418.158L223.992 415.458V403.041L229.819 398.183L223.992 391.164L229.819 379.827L237.234 367.95L240.942 362.551V354.993L237.234 342.036V338.257L240.942 342.036L245.709 338.257L251.006 331.779H256.832L262.129 324.761H267.425L270.074 334.478L267.425 342.036L262.129 334.478L273.781 327.46H281.727L286.494 331.779L294.968 334.478L305.032 331.779L311.388 334.478L323.571 349.595L328.867 354.993H337.342L349.525 358.772L354.821 367.95L358.529 376.048V382.527L364.885 386.306L370.712 391.164H378.127L381.835 393.864L389.25 398.183H400.373L409.378 403.041L419.442 408.98L425.268 411.679V418.158V427.336L416.793 441.372L409.378 450.01V461.887V478.623L400.373 494.279L392.958 496.978L381.835 502.917L373.89 510.475V518.033L370.712 532.61L361.707 547.726L354.821 554.204H348.465H342.639L345.817 560.143V568.781L338.931 573.64H331.516V583.357H321.452V589.296L325.689 593.075L321.452 602.792V607.111V611.97L325.689 618.448V624.927L321.452 631.405L325.689 636.264L321.452 650.301H328.867L335.224 653L345.817 650.301Z" stroke="#66CA8E" stroke-width="3" stroke-dasharray="2 2"/>
<path d="M1231.96 425.176L1243.61 436.513L1239.9 440.292L1231.96 436.513L1222.96 428.415L1217.66 425.176H1211.83L1208.12 431.115L1197.53 428.415L1191.7 425.176H1186.41L1191.7 417.078L1186.41 412.219L1171.58 406.281L1163.63 403.581V398.183L1158.33 389.005H1171.58V393.324L1177.4 403.581L1182.7 398.183L1191.7 393.324L1201.24 398.183L1217.66 403.581L1228.78 412.219L1231.96 425.176Z" stroke="#66CA8E" stroke-width="3" stroke-dasharray="2 2"/>
<path d="M1082.06 364.171L1071.47 372.269L1060.88 377.668L1062.99 390.085L1068.29 398.723L1082.06 404.121H1092.66V398.723L1100.6 387.385L1103.78 383.066V375.508L1100.6 369.03L1103.78 359.852L1100.6 354.453H1092.66L1082.06 364.171Z" stroke="#66CA8E" stroke-width="3" stroke-dasharray="2 2"/>
<path d="M1074.12 417.078L1085.77 424.096L1079.94 427.336L1068.29 424.096H1059.29H1048.69L1046.05 417.078H1055.05H1064.05H1074.12Z" stroke="#66CA8E" stroke-width="3" stroke-dasharray="2 2"/>
<path d="M1046.57 400.342V408.44C1046.57 414.919 1039.16 414.019 1035.45 412.759L1028.04 404.661L1021.15 389.545L1010.56 373.889L1001.55 365.251V357.693L1019.03 365.251L1024.33 373.889L1035.45 381.987V387.385L1046.57 400.342Z" stroke="#66CA8E" stroke-width="3" stroke-dasharray="2 2"/>
<path d="M1103.78 308.565L1106.43 297.768C1107.49 293.449 1110.75 295.968 1112.25 297.768V308.565L1118.08 313.424L1124.44 323.681L1133.44 334.478L1137.15 344.736V356.613H1129.73L1124.44 350.674L1118.08 337.178L1112.25 323.681L1103.78 308.565Z" stroke="#66CA8E" stroke-width="3" stroke-dasharray="2 2"/>
<path d="M1025.92 369.57L1021.15 354.993L1012.15 340.957V324.221L1018.5 330.699V337.718L1021.15 343.656L1025.92 349.595L1034.92 354.993L1038.63 364.171V377.128H1034.92L1025.92 369.57Z" stroke="#66CA8E"/>
<path d="M980.365 284.271L975.598 275.093L959.178 277.792L955.471 288.59L946.996 294.528L931.106 309.645L928.457 318.282V335.018C927.186 345.384 920.159 343.656 916.804 341.497L907.27 322.061L895.618 294.528V281.032H888.732H881.316V272.394H873.371L864.367 259.437L858.54 264.296L843.71 259.437H830.468L822.523 252.958L803.984 250.799L795.509 240.542L789.683 235.683L785.975 240.542L792.331 248.1L795.509 259.437H803.984L809.811 266.995L819.345 259.437L824.641 264.296L835.765 272.394V281.032L827.29 294.528L816.167 299.927L803.984 306.945L792.331 313.424L783.327 322.061H772.204L766.907 313.424V303.706L761.081 294.528L751.017 284.271V275.093L735.127 256.198L730.36 243.241L724.533 248.1L718.177 230.284H727.711L730.36 217.327V205.45L721.355 208.689L709.702 205.45H696.99L690.104 191.414V186.555H683.748L677.392 191.414L680.57 198.972L677.392 205.45L669.977 201.671L672.625 196.272L663.621 191.414L659.913 177.377L650.379 171.439L636.607 161.721C630.675 156.106 632.37 162.261 633.959 166.04L640.845 174.138C646.318 178.277 656.417 186.555 653.027 186.555C649.637 186.555 649.849 194.833 650.379 198.972L640.845 186.555L626.014 174.138L618.599 168.739L605.357 174.138H597.941L593.174 182.776L582.051 191.414V201.671L568.809 205.45H556.627L547.093 198.972L550.8 174.138H572.517L577.284 168.739V157.402L568.809 147.684L582.051 144.985L593.174 138.507L608.005 126.63H613.832L618.599 121.771V111.513L624.425 106.654V113.673L631.311 111.513V103.955L626.014 100.176L618.599 103.955L610.654 100.176V86.1395L633.959 68.3239L650.379 55.907L663.621 48.3489H686.397L700.168 55.907L721.355 58.6063C728.135 64.2209 724.18 67.4242 721.355 68.3239H712.88L700.168 64.005L712.88 74.8023H721.355L727.711 68.3239L735.127 64.005L738.305 58.6063L747.309 64.005L761.081 58.6063H779.09L797.628 55.907H809.281L802.925 48.3489L805.573 42.9502H816.696L824.112 48.3489L835.235 42.9502L843.71 37.5515H855.362V31.613L872.842 27.294H883.965L889.791 22.9751H899.855L909.919 27.294H924.75L928.457 31.613L924.75 37.5515L944.347 40.2508H948.585H958.119H967.123H984.073L1003.14 48.3489H1014.26H1023.27L1025.92 40.2508L1043.4 42.9502L1064.05 48.3489H1082.06H1094.24L1108.02 55.907H1133.97L1138.74 52.6678H1151.45L1171.05 55.907L1188.53 61.3057L1199.65 65.6246H1211.83L1219.25 73.7226H1203.89L1195.94 68.3239L1188.53 73.7226L1199.65 79.1213V85.0598L1188.53 93.1578H1177.4C1166.39 96.1811 1168.58 101.256 1171.05 103.415L1180.05 107.194L1182.7 121.231V135.807H1177.4L1163.63 121.231L1154.63 107.194L1158.86 89.3788L1154.63 85.0598L1148.27 89.3788H1141.39H1133.97V98.5565H1121.26H1102.19L1094.24 103.415L1088.95 116.372L1097.42 121.231H1105.9L1117.55 126.09H1123.91L1133.97 135.807L1141.39 143.365V149.304L1144.56 160.101L1138.74 156.862L1133.97 149.304L1126.55 138.507H1123.91L1126.55 149.304V160.101L1121.26 173.058H1112.78L1108.02 177.377L1105.9 183.855V188.714L1108.02 194.113L1117.55 201.131L1121.26 208.689L1117.55 214.628H1108.02L1105.9 204.91L1094.24 196.812L1088.95 188.714C1082.17 192.601 1079.77 190.334 1079.41 188.714L1073.06 183.855L1064.05 194.113L1073.06 201.131H1079.41L1088.95 204.91L1076.77 213.008L1088.95 224.346L1094.24 232.444L1097.42 243.781L1094.24 258.357L1088.95 269.154L1076.77 275.093L1064.05 277.792L1057.17 284.271L1050.28 277.792L1043.4 282.651L1040.22 291.289L1050.28 303.706L1057.17 315.583V329.08L1050.28 335.018L1045.51 341.497H1040.22V335.018L1031.21 329.08L1020.62 322.061H1016.91V329.08L1011.62 322.061L1007.38 309.645L1003.14 303.706L997.844 306.945H992.548V299.927L988.84 291.289L980.365 284.271Z" stroke="#66CA8E" stroke-width="3" stroke-dasharray="2 2"/>
<path d="M1130.26 228.125L1127.61 220.566L1129.2 215.708L1133.97 210.849H1140.33L1147.74 205.99L1155.16 197.352L1151.98 190.334L1146.15 178.997V171.978V163.88L1153.04 168.739L1162.57 171.978L1159.92 177.377H1153.04V185.475H1157.81L1162.57 193.033V198.972L1164.69 205.99V214.628H1155.16L1149.33 220.566L1142.97 219.487H1138.21L1133.97 217.327L1131.32 219.487L1135.56 224.345L1133.97 230.824L1130.26 228.125Z" stroke="#66CA8E" stroke-width="3" stroke-dasharray="2 2"/>
<path d="M797.628 208.149L784.916 199.512V186.555L771.674 173.058V165.5L784.916 153.083L794.979 161.181L790.742 165.5H784.916V173.058L794.979 177.917H801.865L805.573 183.855L797.628 186.555L801.865 194.113L805.573 202.211L797.628 208.149Z" stroke="#66CA8E" stroke-width="3" stroke-dasharray="2 2"/>
<path d="M715.528 181.156L703.346 185.475L695.93 174.678L699.108 164.96L709.702 156.322L715.528 164.96H724.003V156.322H734.067V164.96L743.071 170.899L751.546 181.156L743.071 185.475L729.829 181.156H715.528Z" stroke="#66CA8E" stroke-width="3" stroke-dasharray="2 2"/>
<path d="M580.462 114.752L589.466 128.249L593.174 131.488L589.466 136.347L576.754 140.126H566.69L569.868 131.488V128.249L576.754 120.691L569.868 114.752V109.894V104.495H576.754L580.462 114.752Z" stroke="#66CA8E" stroke-width="3" stroke-dasharray="2 2"/>
<path d="M551.33 122.311L559.805 118.532C566.585 115.509 565.102 119.791 563.513 122.311L559.805 130.409L551.33 134.728V122.311Z" stroke="#66CA8E" stroke-width="3" stroke-dasharray="2 2"/>
<path d="M514.253 73.7226L525.906 69.9435H539.148L544.974 73.7226L533.321 80.7408H520.609L514.253 73.7226Z" stroke="#66CA8E" stroke-width="3" stroke-dasharray="2 2"/>
<path d="M417.323 69.4036L422.62 60.7657C429.823 57.7425 429.859 51.588 428.976 48.8886L422.62 37.0116L410.967 27.294H401.962L392.958 23.5149V17.5764H410.967L422.62 11.6378L439.04 8.39861L464.994 11.6378L480.884 5.69928H511.605H533.321L546.033 11.6378L538.088 23.5149L533.321 32.6926L523.258 37.0116L515.312 41.8704L523.258 48.8886L515.312 53.2076L500.482 58.0664L489.888 60.7657L480.884 64.5448L464.994 69.4036L450.163 77.5016L439.04 93.1577H428.976L417.323 84.5199V69.4036Z" stroke="#66CA8E" stroke-width="3" stroke-dasharray="2 2"/>
<path d="M360.118 14.3372L350.054 23.5149L362.766 28.3738L372.83 23.5149L385.542 19.196L408.848 14.3372L424.208 3L396.665 6.2392H378.127V14.3372H372.83H360.118Z" stroke="#66CA8E" stroke-width="3" stroke-dasharray="2 2"/>
<path d="M335.224 38.0913H324.631L314.037 44.0298L324.631 50.5083H335.224H347.407L356.941 62.3853V66.1644H347.407L341.05 73.7225L347.407 81.8205L360.119 85.5996L368.064 78.0415V69.9435H372.301C384.166 72.9667 383.954 68.6838 382.365 66.1644L376.009 57.5265L368.064 47.8089L360.119 44.0298H353.763L347.407 40.7906L335.224 38.0913Z" stroke="#66CA8E" stroke-width="3" stroke-dasharray="3 3"/>
<path d="M222.403 34.3123L214.458 38.0913L204.924 41.8704L208.102 47.8089L214.458 41.8704H225.051L229.289 47.8089L222.403 56.4468H231.937H238.293H246.768L256.302 54.2873L267.425 52.6677V47.8089V41.8704H263.718H258.95L254.183 38.0913L248.887 41.8704L242.001 38.0913L231.937 34.3123H222.403Z" stroke="#66CA8E" stroke-width="3" stroke-dasharray="2 2"/>
<path d="M372.301 142.826L382.364 149.304L372.301 152.543H362.237L357.47 149.304L362.237 145.525L372.301 136.347V142.826Z" stroke="#66CA8E" stroke-width="3" stroke-dasharray="3 3"/>
<path d="M270.074 197.892L288.612 183.316L300.265 179.537L307.681 170.359L320.393 163.341H325.16V170.359H333.105L345.287 163.341L333.105 157.942L337.342 146.605H328.338L333.105 137.967H347.936H359.589L371.241 132.028L379.186 124.47L371.241 121.771L365.415 113.133L362.237 94.7774L347.936 102.875L342.639 94.7774V88.8389L325.16 83.4402L316.155 88.8389L310.859 100.176V107.734L300.265 117.452L291.261 121.771V128.789L283.316 135.267L278.019 128.789L281.197 115.832L270.074 113.133L263.188 107.734L252.595 100.176L259.48 88.8389L273.782 83.4402L283.316 78.0415L295.498 74.2624L302.914 69.9435L316.155 74.2624L312.977 81.2807L300.265 78.0415L307.681 65.6246H320.393L328.338 59.686V53.7475H320.393L307.681 59.686L302.914 53.7475L300.265 45.1096L291.261 48.8887V53.7475L283.316 59.686V53.7475H278.019V59.686H270.074L259.48 62.3854L252.595 59.686L239.882 62.3854V65.6246L225.581 62.3854L210.75 53.7475H193.801H180.029L158.313 59.686L143.482 53.7475L106.935 48.8887H91.5741L70.9168 53.7475L64.0311 56.9867C60.6765 56.9867 54.6029 58.7143 57.1453 65.6246L48.6706 69.9435H38.0771C37.0178 71.5631 36.2762 75.4502 41.7848 78.0415L33.8397 83.4402H24.3056L19.5386 92.0781L12.6528 94.7774L19.5386 100.176L1 115.832L33.8397 102.875L51.8486 94.7774H57.1453L74.0949 88.8389L88.9257 94.7774L100.049 102.875L105.346 109.894C103.58 116.372 100.049 131.056 100.049 137.967C109.583 137.967 115.939 148.224 110.642 150.384C106.405 152.111 96.1646 164.42 91.5741 170.359L79.3916 187.095L83.0993 215.168L91.5741 227.045V237.302L95.2818 252.419L100.049 263.756L105.346 270.234V252.419L100.049 242.161V234.063H105.346V246.48L113.82 259.977L123.884 276.173V288.59L147.19 303.706H168.377L176.322 313.424L190.093 318.822H195.39L200.157 328L209.691 340.417L222.933 347.435L232.997 340.417H222.933L212.339 328V307.485H200.157L195.39 303.706L200.157 285.89C202.099 283.011 203.335 278.116 192.742 281.571L185.326 291.829L173.144 296.148L164.669 288.59L158.843 276.173L164.669 256.198L168.377 246.48L185.326 237.302L200.157 242.161L212.339 234.063L220.285 237.302L229.819 242.161V256.198L232.997 259.977L239.882 256.198V246.48L235.645 234.063L245.709 227.045L254.184 220.027L267.425 215.168V203.291L270.074 197.892Z" stroke="#66CA8E" stroke-width="3" stroke-dasharray="2 2"/>
<path d="M273.782 295.608H258.951L263.188 286.97H268.485L283.316 290.209L273.782 295.608Z" stroke="#66CA8E" stroke-width="3" stroke-dasharray="2 2"/>
<path d="M237.234 271.314H219.755L224.522 275.093L233.526 279.952L241.471 285.89L257.891 283.191L252.595 279.952L237.234 271.314Z" stroke="#66CA8E" stroke-width="3" stroke-dasharray="2 2"/>
<path d="M229.82 157.942H244.651L235.117 166.04L229.82 177.917L232.468 182.776L238.824 177.917L244.651 163.34H254.185V171.978L265.308 166.04V157.942H259.482L254.185 154.703L248.888 148.764H235.117L229.82 157.942Z" stroke="#66CA8E" stroke-width="3" stroke-dasharray="2 2"/>
<path d="M322.512 30.5332L348.466 35.392L354.292 30.5332H338.932L329.397 25.6744L322.512 30.5332Z" stroke="#66CA8E" stroke-width="3" stroke-dasharray="2 2"/>
<path d="M351.114 9.47842L347.406 17.0366H339.991L332.575 14.3372L339.991 9.47842H351.114Z" stroke="#66CA8E" stroke-width="3" stroke-dasharray="2 2"/>
<path d="M643.493 115.292L648.26 106.115L651.438 99.6362L654.087 94.7774L648.26 88.299V82.3605L659.383 78.5814L666.269 67.7841L673.684 73.7226L663.621 82.3605L666.269 92.0781H684.278L691.164 94.7774L684.278 99.6362H673.684V106.115H666.269V115.292L659.383 120.151H654.087L643.493 123.93L638.196 120.151H627.073L633.959 115.292H643.493Z" stroke="#66CA8E" stroke-width="3" stroke-dasharray="2 2"/>
<path d="M1103.78 399.802L1108.55 387.385C1106 383.498 1109.61 379.647 1111.72 378.208C1111.72 375.616 1125.5 377.128 1132.38 378.208C1132.38 386.845 1122.49 383.966 1117.55 381.447L1113.84 385.226L1115.43 390.625H1123.38L1117.55 395.483L1120.73 403.041L1117.55 406.821L1113.84 399.802L1111.72 403.041V412.759L1103.78 411.139V399.802Z" stroke="#66CA8E" stroke-width="3" stroke-dasharray="2 2"/>
</svg>
