<svg width="22" height="18" viewBox="0 0 22 18" fill="none" xmlns="http://www.w3.org/2000/svg">
<path d="M7.11391 17C4.86347 17 2.76569 16.3455 1 15.2161C2.49913 15.3131 5.14474 15.0808 6.79032 13.5112C4.31484 13.3976 3.19844 11.499 3.05283 10.6876C3.26316 10.7688 4.2663 10.8661 4.83258 10.6389C1.98497 9.92495 1.54812 7.42596 1.6452 6.66329C2.17913 7.03651 3.08519 7.16633 3.44114 7.13387C0.787682 5.23529 1.74228 2.37931 2.21149 1.76268C4.1157 4.40081 6.96953 5.88248 10.5001 5.9649C10.4335 5.67294 10.3984 5.36899 10.3984 5.0568C10.3984 2.81629 12.2093 1 14.4433 1C15.6105 1 16.6622 1.49583 17.4005 2.28893C18.1805 2.10616 19.3543 1.67831 19.9282 1.30832C19.6389 2.34686 18.7384 3.21321 18.1937 3.53431C18.1982 3.54524 18.1892 3.52334 18.1937 3.53431C18.6722 3.46194 19.9668 3.21313 20.4783 2.86613C20.2253 3.44957 19.2706 4.41964 18.4871 4.96273C18.6329 11.3917 13.7141 17 7.11391 17Z" fill="white"/>
<path d="M18.1937 3.53431C18.7384 3.21321 19.6389 2.34686 19.9282 1.30832C19.3543 1.67831 18.1805 2.10616 17.4005 2.28893C16.6622 1.49583 15.6105 1 14.4433 1C12.2093 1 10.3984 2.81629 10.3984 5.0568C10.3984 5.36899 10.4335 5.67294 10.5001 5.9649C6.96953 5.88248 4.1157 4.40081 2.21149 1.76268C1.74228 2.37931 0.787682 5.23529 3.44114 7.13387C3.08519 7.16633 2.17913 7.03651 1.6452 6.66329C1.54812 7.42596 1.98497 9.92495 4.83258 10.6389C4.2663 10.8661 3.26316 10.7688 3.05283 10.6876C3.19844 11.499 4.31484 13.3976 6.79032 13.5112C5.14474 15.0808 2.49913 15.3131 1 15.2161C2.76569 16.3455 4.86347 17 7.11391 17C13.7141 17 18.6329 11.3917 18.4871 4.96273C19.2706 4.41964 20.2253 3.44957 20.4783 2.86613C19.9668 3.21313 18.6722 3.46194 18.1937 3.53431ZM18.1937 3.53431C18.1892 3.52334 18.1982 3.54524 18.1937 3.53431Z" stroke="white"/>
</svg>
