<svg width="22" height="24" viewBox="0 0 22 24" fill="none" xmlns="http://www.w3.org/2000/svg">
<path d="M1.35742 0.0107519C1.3513 0.0127895 1.34723 0.025016 1.34112 0.0270536C1.32685 0.0290911 1.30647 0.0229784 1.29221 0.0270536C1.18217 0.03928 1.08029 0.0841093 0.99878 0.157467C0.648295 0.349011 0.428223 0.742289 0.428223 1.16817V22.9635C0.428223 23.2875 0.570862 23.6278 0.835764 23.8275C0.958026 23.964 1.14346 24.0251 1.32481 23.9905C1.56322 24.0027 1.81386 23.9497 2.02578 23.8275C2.46797 23.5707 11.497 18.3501 11.497 18.3501L16.2082 15.6277C16.2184 15.6237 16.2306 15.6175 16.2408 15.6114L16.306 15.5788C16.306 15.5788 16.3692 15.5462 16.3712 15.5462C16.3773 15.5401 16.3814 15.536 16.3875 15.5299C16.5281 15.4484 20.3876 13.2273 20.9194 12.9217C21.2862 12.7097 21.5776 12.3654 21.5715 11.9436C21.5653 11.5218 21.2678 11.1937 20.9357 11.0144C20.7523 10.9166 19.5623 10.236 18.4578 9.59612C17.3534 8.95628 16.306 8.34089 16.306 8.34089L11.497 5.56961C11.497 5.56961 2.75325 0.520179 2.23771 0.222673C2.05635 0.11875 1.85054 0.0352044 1.65085 0.0107519C1.551 -0.00147407 1.45523 -0.00554975 1.35742 0.0107519ZM1.47153 1.41269L12.1002 11.9599L1.47153 22.507V1.41269ZM3.94938 2.40709C6.60247 3.93945 10.9754 6.4662 10.9754 6.4662L15.1812 8.89515L12.8338 11.2263L3.94938 2.40709ZM16.1104 9.4331C16.361 9.57982 16.9988 9.95068 17.9362 10.4927C19.0406 11.1326 20.1736 11.7805 20.4466 11.9273C20.4731 11.9415 20.465 11.9497 20.4793 11.9599C20.4589 11.9741 20.4528 11.9782 20.3977 12.0088C19.8965 12.2981 16.6463 14.185 16.1267 14.4866L13.5674 11.9599L16.1104 9.4331ZM12.8338 12.6771L15.1975 15.0246L10.9754 17.4535C10.9754 17.4535 6.71658 19.911 3.96568 21.4963L12.8338 12.6771Z" fill="white"/>
</svg>
